<?xml version="1.0" encoding="UTF-8" standalone="no"?>
<svg
   id="Warstwa_1"
   viewBox="0 0 430 430"
   version="1.1"
   sodipodi:docname="icon.svg"
   xml:space="preserve"
   inkscape:version="1.3.2 (091e20e, 2023-11-25)"
   xmlns:inkscape="http://www.inkscape.org/namespaces/inkscape"
   xmlns:sodipodi="http://sodipodi.sourceforge.net/DTD/sodipodi-0.dtd"
   xmlns="http://www.w3.org/2000/svg"
   xmlns:svg="http://www.w3.org/2000/svg"><sodipodi:namedview
     id="namedview6"
     pagecolor="#ffffff"
     bordercolor="#000000"
     borderopacity="0.25"
     inkscape:showpageshadow="2"
     inkscape:pageopacity="0.0"
     inkscape:pagecheckerboard="0"
     inkscape:deskcolor="#d1d1d1"
     inkscape:zoom="1.6794594"
     inkscape:cx="214.95012"
     inkscape:cy="205.72096"
     inkscape:window-width="1728"
     inkscape:window-height="1348"
     inkscape:window-x="3232"
     inkscape:window-y="472"
     inkscape:window-maximized="0"
     inkscape:current-layer="Warstwa_1"
     showgrid="true"><inkscape:grid
       id="grid1"
       units="px"
       originx="0"
       originy="0"
       spacingx="1"
       spacingy="1"
       empcolor="#0099e5"
       empopacity="0.30196078"
       color="#0099e5"
       opacity="0.14901961"
       empspacing="5"
       dotted="false"
       gridanglex="30"
       gridanglez="30"
       visible="true" /></sodipodi:namedview><defs
     id="defs2"><style
       id="style1">.cls-1{fill:#fff;}.cls-2{fill:url(#Gradient_bez_nazwy_6);}</style><radialGradient
       id="Gradient_bez_nazwy_6"
       cx="419.03"
       cy="39.43"
       fx="419.03"
       fy="39.43"
       r="459.36"
       gradientUnits="userSpaceOnUse"
       gradientTransform="matrix(1.5189855,0,0,1.5189855,-111.32844,-111.50658)"><stop
         offset="0"
         stop-color="#339ebf"
         id="stop1" /><stop
         offset="1"
         stop-color="#1e90ff"
         id="stop2" /></radialGradient></defs><path
     class="cls-2"
     d="M 372.27096,0.27556601 H 58.235913 C 26.382788,0.27556601 0.46889662,26.189457 0.46889662,58.042581 V 372.09284 c 0,31.85312 25.91389138,57.767 57.76701638,57.767 H 372.27096 c 31.85312,0 57.7822,-25.91388 57.7822,-57.767 V 58.042581 c 0,-31.853124 -25.92908,-57.76701499 -57.7822,-57.76701499 z"
     id="path2"
     style="fill:url(#Gradient_bez_nazwy_6);stroke-width:1.51898" /><path
     d="m 86.669859,132.50206 h 1.301636 a 36.491592,36.491592 0 0 0 70.728245,0 h 184.6304 a 9.16644,9.16644 0 0 0 0,-18.33288 h -184.6304 a 36.491592,36.491592 0 0 0 -70.728245,0 h -1.301636 a 9.16644,9.16644 0 0 0 0,18.33288 z m 36.665751,-27.49932 a 18.332878,18.332878 0 1 1 -18.33288,18.33287 18.332878,18.332878 0 0 1 18.33288,-18.33287 z m 219.99453,100.83083 h -1.30164 a 36.491592,36.491592 0 0 0 -70.72823,0 H 86.669859 a 9.1664388,9.1664388 0 0 0 0,18.33287 H 271.30027 a 36.491592,36.491592 0 0 0 70.72823,0 h 1.30164 a 9.1664388,9.1664388 0 0 0 0,-18.33287 z m -36.66575,27.49931 a 18.332878,18.332878 0 1 1 18.33288,-18.33287 18.332878,18.332878 0 0 1 -18.33288,18.33287 z m 36.66575,64.16507 h -92.96602 a 36.491592,36.491592 0 0 0 -70.72824,0 H 86.669859 a 9.1664388,9.1664388 0 0 0 0,18.33287 h 92.966021 a 36.491592,36.491592 0 0 0 70.72824,0 h 92.96602 a 9.1664388,9.1664388 0 0 0 0,-18.33287 z M 215,324.99727 A 18.332878,18.332878 0 1 1 233.33288,306.66439 18.332878,18.332878 0 0 1 215,324.99727 Z"
     id="path1"
     style="stroke-width:9.16644;fill:#ffffff" /></svg>
